<svg width="1280" height="720" viewBox="0 0 1280 720" xmlns="http://www.w3.org/2000/svg" role="img" aria-labelledby="title desc">
  <title id="title">Очередь загрузок Clip</title>
  <desc id="desc">Демонстрационный скриншот очереди загрузок с прогрессом, статусами и кнопками действий.</desc>
  <defs>
    <linearGradient id="bg" x1="0" y1="0" x2="1" y2="1">
      <stop offset="0" stop-color="#f7f7fb"/>
      <stop offset="1" stop-color="#edf3f6"/>
    </linearGradient>
    <filter id="shadow" x="-10%" y="-10%" width="120%" height="130%">
      <feDropShadow dx="0" dy="12" stdDeviation="18" flood-color="#1d2433" flood-opacity=".12"/>
    </filter>
  </defs>
  <rect width="1280" height="720" fill="url(#bg)"/>
  <rect x="54" y="44" width="1172" height="632" rx="22" fill="#ffffff" filter="url(#shadow)"/>

  <text x="88" y="94" font-family="Segoe UI, Arial" font-size="28" font-weight="800" fill="#202636">Очередь загрузок</text>
  <text x="88" y="122" font-family="Segoe UI, Arial" font-size="15" fill="#687282">Видно статус, прогресс, формат и быстрые действия с файлами.</text>
  <rect x="1030" y="82" width="150" height="34" rx="17" fill="#eeeaff"/>
  <text x="1054" y="104" font-family="Segoe UI, Arial" font-size="13" fill="#5e55c9">2 выполняются</text>

  <rect x="88" y="160" width="1092" height="132" rx="16" fill="#fbfcfe" stroke="#e3e8f0"/>
  <text x="118" y="198" font-family="Segoe UI, Arial" font-size="18" font-weight="700" fill="#202636">Обзор проекта на YouTube</text>
  <text x="118" y="224" font-family="Segoe UI, Arial" font-size="14" fill="#6a7280">MP4 · 720p · фрагмент 00:01:15-00:05:40</text>
  <rect x="982" y="184" width="112" height="30" rx="15" fill="#eefaf6"/>
  <text x="1008" y="204" font-family="Segoe UI, Arial" font-size="13" fill="#2e856f">Скачивание</text>
  <text x="118" y="258" font-family="Segoe UI, Arial" font-size="12" font-weight="700" fill="#7a8190">ПРОГРЕСС</text>
  <text x="1038" y="258" font-family="Segoe UI, Arial" font-size="13" fill="#596273">64%</text>
  <line x1="118" y1="274" x2="1084" y2="274" stroke="#d7ddea" stroke-width="8" stroke-linecap="round"/>
  <line x1="118" y1="274" x2="736" y2="274" stroke="#7567f1" stroke-width="8" stroke-linecap="round"/>

  <rect x="88" y="318" width="1092" height="132" rx="16" fill="#fbfcfe" stroke="#e3e8f0"/>
  <text x="118" y="356" font-family="Segoe UI, Arial" font-size="18" font-weight="700" fill="#202636">Подкаст: выпуск 24</text>
  <text x="118" y="382" font-family="Segoe UI, Arial" font-size="14" fill="#6a7280">MP3 · исходное качество · полный файл</text>
  <rect x="982" y="342" width="112" height="30" rx="15" fill="#fff7e8"/>
  <text x="1015" y="362" font-family="Segoe UI, Arial" font-size="13" fill="#9a6a12">В очереди</text>
  <text x="118" y="416" font-family="Segoe UI, Arial" font-size="12" font-weight="700" fill="#7a8190">ПРОГРЕСС</text>
  <text x="1048" y="416" font-family="Segoe UI, Arial" font-size="13" fill="#596273">0%</text>
  <line x1="118" y1="432" x2="1084" y2="432" stroke="#d7ddea" stroke-width="8" stroke-linecap="round"/>

  <rect x="88" y="476" width="1092" height="132" rx="16" fill="#fbfcfe" stroke="#e3e8f0"/>
  <text x="118" y="514" font-family="Segoe UI, Arial" font-size="18" font-weight="700" fill="#202636">Короткое видео из TikTok</text>
  <text x="118" y="540" font-family="Segoe UI, Arial" font-size="14" fill="#6a7280">MP4 · 1080p · C:\Users\...\Downloads</text>
  <rect x="982" y="500" width="112" height="30" rx="15" fill="#edf7f1"/>
  <text x="1024" y="520" font-family="Segoe UI, Arial" font-size="13" fill="#407d55">Готово</text>
  <text x="118" y="574" font-family="Segoe UI, Arial" font-size="12" font-weight="700" fill="#7a8190">ПРОГРЕСС</text>
  <text x="1032" y="574" font-family="Segoe UI, Arial" font-size="13" fill="#596273">100%</text>
  <line x1="118" y1="590" x2="1084" y2="590" stroke="#2f8f83" stroke-width="8" stroke-linecap="round"/>

  <rect x="970" y="630" width="42" height="42" rx="12" fill="#f2f4f8"/>
  <text x="984" y="657" font-family="Segoe UI, Arial" font-size="18" fill="#596273">↻</text>
  <rect x="1022" y="630" width="42" height="42" rx="12" fill="#f2f4f8"/>
  <text x="1036" y="657" font-family="Segoe UI, Arial" font-size="18" fill="#596273">↗</text>
  <rect x="1074" y="630" width="42" height="42" rx="12" fill="#f2f4f8"/>
  <text x="1089" y="657" font-family="Segoe UI, Arial" font-size="18" fill="#596273">□</text>
  <rect x="1126" y="630" width="42" height="42" rx="12" fill="#fff0f0"/>
  <text x="1141" y="657" font-family="Segoe UI, Arial" font-size="18" fill="#b64949">×</text>
</svg>
